<?xml version="1.0" standalone="no"?>
<!DOCTYPE svg PUBLIC "-//W3C//DTD SVG 1.1//EN" "http://www.w3.org/Graphics/SVG/1.1/DTD/svg11.dtd">
<svg xmlns="http://www.w3.org/2000/svg" viewBox="0 0 165.24 188.75" width="165.24000549316406" height="188.75"><defs><style>.cls-1{fill:#ae0002;}</style></defs><g id="Camada_2" data-name="Camada 2"><g id="Camada_1-2" data-name="Camada 1"><path class="cls-1" d="M0,79.68v79.67H165.24l-.17-79.5L164.81.44,82.45.18,0,0ZM85.65,23.2a58,58,0,0,1,8,1.84c3.9,1.31,4.24,1.31,7-.44a11,11,0,0,1,3.89-1.84c1.82,0,1,1.41-2.07,3l-3,1.66,3.81,3.42c5.36,4.64,7.78,10.07,7.61,16.9v5.51l7.44.35a49,49,0,0,1,12.29,2.19l4.84,1.75,2.94-2c3.2-2.28,4.33-2.54,4.33-1.23,0,.44-1.21,1.49-2.68,2.28L137.38,58l3.9,4c6.92,7.18,9.08,14.88,6.31,22.76-4.41,12.52-19.2,19.18-28.72,13-1.13-.79-1.9-1.84-1.56-2.36s1-.44,1.91.35c5.79,5.16,14.88,1.22,19.89-8.49,2-3.86,2.34-5.52,2.34-12.44,0-7.35-.17-8.14-2.42-11.2-1.39-1.84-3.12-3.16-3.9-3-2.68.52-10.55,12.61-18.86,29-9.6,18.82-15.31,27.23-24.57,35.9-13.06,12.25-27.59,15.41-35.64,7.79-4.67-4.38-2.16-12.43,3.46-10.94,2.16.52,2.77,2.53,2.51,7.61-.26,4.56,2.25,6,8.39,5.34,11.51-1.4,17.65-8,31.23-33.27C112.29,82.3,117.74,74.16,126,65.93l7.1-7.18-2.34-.88a39.24,39.24,0,0,0-15.31-2.71c-6.06,0-6.23.09-7.27,2.63-3.55,8.75-18.25,14.27-25.78,9.63l-2.85-1.84L76,68.38a30.24,30.24,0,0,0-5.62,6.39c-1.22,2-3.81,5.69-5.71,8.23-2.86,3.77-3.55,5.52-3.9,9.46-.69,8.05,2.08,11.73,8.83,11.73,11.07,0,28.63-17.86,34.6-35.46,2.34-6.57,3.12-7.79,3.12-4.64,0,7.62-8.4,24.78-16,32.66C80.89,107.52,67.39,110,61,102.35c-1.73-2.19-2.16-3.59-2.16-7.53V90l-5.19,4.9c-6.4,6-10.9,8.67-17.65,10.59-11,3.24-21.72-2.18-20-10.15,1-4.47,5.54-5.69,7.88-2.1,1.21,1.84,1.21,2.62.34,4.9-1,2.36-.95,2.89.61,4.47,2.42,2.36,9.17,2.27,14.71-.18,8-3.59,13.06-10,25-32C74.83,51.31,80.46,42.9,88.42,34.85l6.83-6.92L92,26.53c-4.84-2.19-21.45-2.63-29.24-.79-8.39,2-20.67,8.23-26.56,13.57C26.21,48.33,21,59.8,23.27,67.42c1.91,6.48,8.31,7.7,17.13,3.41C49.57,66.37,62.46,50,66.79,37.39c2.16-6.31,3.89-7.88,2.85-2.63-2.85,15.41-15,33.53-25.95,38.79-5.88,2.71-14,3-17.48.35-4-3-5.62-7-5-12.52.77-7.45,4.23-13.75,11.68-21.19C42.82,30.12,55,24.43,69.73,22.85,76.48,22.15,77.86,22.15,85.65,23.2Z"/><path class="cls-1" d="M94,33.36a73.16,73.16,0,0,0-6,8C84.44,46.93,75,65.67,75.79,65.67a12,12,0,0,0,3-1.84c3.72-2.72,14.45-7.44,19.56-8.67,4.23-1,4.41-1.14,5.36-4.82a23.82,23.82,0,0,0,.09-12.78c-.87-3.15-4.42-7.79-5.89-7.79C97.5,29.77,95.68,31.34,94,33.36Z"/><path class="cls-1" d="M95.86,57.79a83.58,83.58,0,0,0-8.48,3.59c-6.4,3-6.92,4.46-1.82,5.42s12-2.88,14.88-8.31C101.39,56.74,100,56.47,95.86,57.79Z"/><path class="cls-1" d="M7.14,180.35q3.78-1,3.78-5.12a4.11,4.11,0,0,0-1-3.1,4.28,4.28,0,0,0-3-.95,10.32,10.32,0,0,0-1.75.13v.07a1.5,1.5,0,0,1,.37,1.09v13.71a2.5,2.5,0,0,0,.14.88,1.47,1.47,0,0,0,.33.54,1.07,1.07,0,0,0,.53.28,3,3,0,0,0,.57.11,6.47,6.47,0,0,0,.7,0v.51H.89V188a6.57,6.57,0,0,0,.71,0,3.27,3.27,0,0,0,.57-.11,1.12,1.12,0,0,0,.53-.28,1.62,1.62,0,0,0,.34-.54,2.28,2.28,0,0,0,.15-.88V172.71a2.26,2.26,0,0,0-.15-.87,1.39,1.39,0,0,0-.34-.53,1.32,1.32,0,0,0-.53-.27,3.27,3.27,0,0,0-.57-.11H.9v-.52H3.17c.43,0,1.16,0,2.2-.07l2-.06a9.46,9.46,0,0,1,1.94.19,9.71,9.71,0,0,1,1.92.62,3.54,3.54,0,0,1,1.59,1.38,4.17,4.17,0,0,1,.61,2.33A5.56,5.56,0,0,1,11.69,179a7,7,0,0,1-4.55,1.91v-.53Z"/><path class="cls-1" d="M29.53,186.35a3.65,3.65,0,0,0,.52,1,1.48,1.48,0,0,0,.63.49,2,2,0,0,0,.63.18c.18,0,.44,0,.78,0v.51H25.8V188a2.3,2.3,0,0,0,.4,0,3.64,3.64,0,0,0,.38-.05.54.54,0,0,0,.34-.15,1.46,1.46,0,0,0,.22-.3,1,1,0,0,0,.06-.52,4.65,4.65,0,0,0-.17-.76l-1.29-3.29a4.48,4.48,0,0,1-.19-1.23l0-.07H19.42l0,.07c.09.17,0,.57-.22,1.22L18,186.2a2.45,2.45,0,0,0-.17.76.85.85,0,0,0,.11.5,1.71,1.71,0,0,0,.27.31,1,1,0,0,0,.44.15l.5.05h.59v.52H13.85V188a4.92,4.92,0,0,0,.76,0,2.66,2.66,0,0,0,.65-.19,1.57,1.57,0,0,0,.66-.53,4.35,4.35,0,0,0,.53-1l5.93-16.07h.82l6.35,16.19Zm-4.41-5.86,0-.07a3.08,3.08,0,0,1-.66-1.07l-2-5.21-1.95,5.21a2.16,2.16,0,0,1-.57,1.07l0,.07Z"/><path class="cls-1" d="M44,174.45h-.3a3.6,3.6,0,0,0-1.24-2.57,3.78,3.78,0,0,0-2.35-.76A2.42,2.42,0,0,0,38,172a3.45,3.45,0,0,0-.6,2,3.1,3.1,0,0,0,.82,2.05,8.17,8.17,0,0,0,2,1.71c.78.49,1.57,1,2.35,1.52a8.08,8.08,0,0,1,2,1.86,3.84,3.84,0,0,1,.82,2.35,5.32,5.32,0,0,1-1.44,3.67,5.21,5.21,0,0,1-4.06,1.59,7,7,0,0,1-2.76-.57,7.26,7.26,0,0,0-1.58-.57c-.44,0-.7.32-.76.94h-.42l.27-4.58h.32a3.91,3.91,0,0,0,1.73,2.88,5.68,5.68,0,0,0,3.14.93,2.85,2.85,0,0,0,1.87-.63,3.26,3.26,0,0,0,1-1.41,5.2,5.2,0,0,0,.26-1.63,3.29,3.29,0,0,0-.79-2.13,8.65,8.65,0,0,0-1.94-1.7l-2.28-1.51A7.39,7.39,0,0,1,36,176.92a3.89,3.89,0,0,1-.8-2.36,4.19,4.19,0,0,1,1.35-3.14A4.82,4.82,0,0,1,40,170.14a8.89,8.89,0,0,1,2.16.32,9.39,9.39,0,0,0,1.44.32c.29,0,.47-.2.52-.62h.42Z"/><path class="cls-1" d="M58.45,174.45h-.3a3.6,3.6,0,0,0-1.24-2.57,3.78,3.78,0,0,0-2.35-.76,2.42,2.42,0,0,0-2.12.87,3.45,3.45,0,0,0-.6,2,3.1,3.1,0,0,0,.82,2.05,8.17,8.17,0,0,0,2,1.71c.78.49,1.57,1,2.35,1.52a8.26,8.26,0,0,1,2,1.86,3.84,3.84,0,0,1,.82,2.35,5.32,5.32,0,0,1-1.44,3.67,5.21,5.21,0,0,1-4.06,1.59,7,7,0,0,1-2.76-.57,7.46,7.46,0,0,0-1.58-.57c-.44,0-.7.32-.76.94h-.42l.27-4.58h.31a3.92,3.92,0,0,0,1.74,2.88,5.67,5.67,0,0,0,3.13.93,2.86,2.86,0,0,0,1.88-.63,3.26,3.26,0,0,0,1-1.41,5.2,5.2,0,0,0,.26-1.63,3.25,3.25,0,0,0-.8-2.13,8.38,8.38,0,0,0-1.93-1.7l-2.28-1.51a7.39,7.39,0,0,1-1.93-1.85,3.89,3.89,0,0,1-.8-2.36A4.19,4.19,0,0,1,51,171.42a4.82,4.82,0,0,1,3.41-1.28,8.89,8.89,0,0,1,2.16.32,9.39,9.39,0,0,0,1.44.32c.29,0,.47-.2.52-.62H59Z"/><path class="cls-1" d="M77.32,186.35a4,4,0,0,0,.52,1,1.55,1.55,0,0,0,.63.49,2.09,2.09,0,0,0,.64.18c.17,0,.44,0,.78,0v.51h-6.3V188a2.49,2.49,0,0,0,.41,0l.37-.05a.57.57,0,0,0,.35-.15,1.44,1.44,0,0,0,.21-.3A.94.94,0,0,0,75,187a3.7,3.7,0,0,0-.16-.76l-1.29-3.29a4.13,4.13,0,0,1-.19-1.23l0-.07H67.22l0,.07c.09.17,0,.57-.23,1.22l-1.2,3.29a2.72,2.72,0,0,0-.16.76.72.72,0,0,0,.11.5,1.71,1.71,0,0,0,.27.31.93.93,0,0,0,.44.15l.49.05h.6v.52H61.65V188a5,5,0,0,0,.76,0,2.6,2.6,0,0,0,.64-.19,1.51,1.51,0,0,0,.66-.53,4,4,0,0,0,.53-1l5.94-16.07H71l6.35,16.19Zm-4.4-5.86,0-.07a3.07,3.07,0,0,1-.65-1.07l-2-5.21-2,5.21a2.16,2.16,0,0,1-.57,1.07l0,.07Z"/><path class="cls-1" d="M99.81,188.54a6.9,6.9,0,0,1-1.48.12,7.49,7.49,0,0,1-2.31-.33,5.91,5.91,0,0,1-1.69-.79A6.93,6.93,0,0,1,93,186.15a14.1,14.1,0,0,1-1.13-1.67l-1.16-2.09c-.5-.89-.94-1.64-1.33-2.27a11.59,11.59,0,0,1-1.37.16v-.42a7.65,7.65,0,0,0,3.28-1.71,4.07,4.07,0,0,0,1.1-3q0-3.92-4-3.91a11.2,11.2,0,0,0-2.09.15v.07a1.5,1.5,0,0,1,.37,1.09v13.69a2.56,2.56,0,0,0,.18,1,1,1,0,0,0,.53.54A2.43,2.43,0,0,0,88,188a4.35,4.35,0,0,0,.72,0v.52H82.08V188h.7a3.25,3.25,0,0,0,.57-.12,1.07,1.07,0,0,0,.53-.28,1.68,1.68,0,0,0,.35-.54,2.26,2.26,0,0,0,.15-.87V172.73a2.28,2.28,0,0,0-.15-.88,1.52,1.52,0,0,0-.35-.53,1.25,1.25,0,0,0-.53-.26,2.53,2.53,0,0,0-.57-.12h-.69v-.52h2.26c.43,0,1.15,0,2.17-.06s1.73-.07,2.15-.07a11.91,11.91,0,0,1,1.72.12,7.94,7.94,0,0,1,1.68.42,5,5,0,0,1,1.48.77,3.68,3.68,0,0,1,1,1.26,4,4,0,0,1,.41,1.84,4.61,4.61,0,0,1-1.24,3.23,6.76,6.76,0,0,1-2.89,1.9l0,.13a2.65,2.65,0,0,1,.68,0,.71.71,0,0,1,.37.15,1.26,1.26,0,0,1,.27.31c.38.54.86,1.26,1.44,2.17s1,1.62,1.42,2.13a18.32,18.32,0,0,0,1.29,1.64,5.22,5.22,0,0,0,1.49,1.25,3.45,3.45,0,0,0,1.61.39l.34,0Z"/><path class="cls-1" d="M113.32,185l-.66,3.52H101.34V188a6.78,6.78,0,0,0,.71,0,3.27,3.27,0,0,0,.57-.11,1.17,1.17,0,0,0,.53-.28,1.79,1.79,0,0,0,.34-.54,2.28,2.28,0,0,0,.15-.88V172.71a2.26,2.26,0,0,0-.15-.87,1.51,1.51,0,0,0-.34-.53,1.39,1.39,0,0,0-.53-.27,3.27,3.27,0,0,0-.57-.11h-.7v-.52h9.31c.66,0,1.06-.09,1.21-.26h.21l-.33,3.22-.47-.05a1.89,1.89,0,0,0-.34-1.32,2.46,2.46,0,0,0-1.61-.34H105.6v.08a1.47,1.47,0,0,1,.37,1.08v3.94a1.51,1.51,0,0,1-.37,1.09v.07h3.34a2.27,2.27,0,0,0,1.58-.37,1.59,1.59,0,0,0,.34-1.13h.5v4.13h-.5a2.34,2.34,0,0,0,0-.6,1.28,1.28,0,0,0-.23-.45,1,1,0,0,0-.58-.34,4.45,4.45,0,0,0-1.07-.11h-3.34v.09a1.67,1.67,0,0,1,.36,1.21V186a1.47,1.47,0,0,1-.36,1.08v.09h4.82a2,2,0,0,0,1.63-.53,4.79,4.79,0,0,0,.76-1.73Z"/><path class="cls-1" d="M129,184.73l-.55,3.81H116.51V188h.71a3.45,3.45,0,0,0,.57-.12,1.07,1.07,0,0,0,.53-.28,1.68,1.68,0,0,0,.35-.54,2.26,2.26,0,0,0,.15-.87V172.73a2.28,2.28,0,0,0-.15-.88,1.52,1.52,0,0,0-.35-.53,1.25,1.25,0,0,0-.53-.26,2.65,2.65,0,0,0-.57-.12h-.69v-.52h6.89v.52h-.69a2.43,2.43,0,0,0-.57.12,1.25,1.25,0,0,0-.53.26,1.26,1.26,0,0,0-.32.53,2.5,2.5,0,0,0-.14.88V186a1.47,1.47,0,0,1-.37,1.08v.09h5.37a2,2,0,0,0,1.63-.57,4.69,4.69,0,0,0,.66-2Z"/><path class="cls-1" d="M144.43,184.73l-.54,3.81H132V188h.71a3.25,3.25,0,0,0,.57-.12,1.07,1.07,0,0,0,.53-.28,1.68,1.68,0,0,0,.35-.54,2.26,2.26,0,0,0,.15-.87V172.73a2.28,2.28,0,0,0-.15-.88,1.52,1.52,0,0,0-.35-.53,1.25,1.25,0,0,0-.53-.26,2.53,2.53,0,0,0-.57-.12H132v-.52h6.89v.52h-.69a2.43,2.43,0,0,0-.57.12,1.25,1.25,0,0,0-.53.26,1.26,1.26,0,0,0-.32.53,2.5,2.5,0,0,0-.14.88V186a1.47,1.47,0,0,1-.37,1.08v.09h5.37a2,2,0,0,0,1.63-.57,4.69,4.69,0,0,0,.66-2Z"/><path class="cls-1" d="M161.78,186.35a4,4,0,0,0,.52,1,1.55,1.55,0,0,0,.63.49,2.09,2.09,0,0,0,.64.18c.17,0,.44,0,.78,0v.51h-6.3V188a2.43,2.43,0,0,0,.41,0l.37-.05a.57.57,0,0,0,.35-.15,1.44,1.44,0,0,0,.21-.3.94.94,0,0,0,.06-.52,3.7,3.7,0,0,0-.16-.76L158,182.92a4.13,4.13,0,0,1-.19-1.23l0-.07h-6.1l0,.07c.09.17,0,.57-.23,1.22l-1.2,3.29a2.72,2.72,0,0,0-.16.76.72.72,0,0,0,.11.5,1.71,1.71,0,0,0,.27.31.93.93,0,0,0,.44.15l.49.05h.6v.52h-5.86V188a5,5,0,0,0,.76,0,2.6,2.6,0,0,0,.64-.19,1.51,1.51,0,0,0,.66-.53,4,4,0,0,0,.53-1l5.94-16.07h.82l6.35,16.19Zm-4.4-5.86,0-.07a3.07,3.07,0,0,1-.65-1.07l-2-5.21-1.95,5.21a2.16,2.16,0,0,1-.57,1.07l0,.07Z"/></g></g></svg>